<?xml version="1.0" standalone="no"?>
<!DOCTYPE svg PUBLIC "-//W3C//DTD SVG 20010904//EN"
 "http://www.w3.org/TR/2001/REC-SVG-20010904/DTD/svg10.dtd">
<svg version="1.0" xmlns="http://www.w3.org/2000/svg"
 width="1380.000000pt" height="920.000000pt" viewBox="0 0 1380.000000 920.000000"
 preserveAspectRatio="xMidYMid meet">

<g transform="translate(0.000000,920.000000) scale(0.100000,-0.100000)"
fill="#000000" stroke="none">
<path d="M7543 7330 c-92 -19 -124 -49 -156 -146 -26 -80 -41 -88 -108 -54
-74 38 -153 4 -165 -71 -8 -50 -28 -61 -82 -47 -52 13 -89 -7 -94 -49 -3 -27
-5 -28 -74 -33 -52 -4 -78 -10 -93 -24 -12 -11 -21 -23 -21 -28 0 -4 333 -8
740 -8 658 0 740 2 740 15 0 26 -25 78 -54 113 -24 27 -34 32 -71 32 -24 0
-54 -4 -68 -9 -33 -13 -42 -4 -67 62 -25 66 -101 155 -164 192 -84 49 -184 70
-263 55z m213 -46 c80 -38 151 -106 185 -179 16 -33 29 -65 29 -71 0 -6 7 -17
15 -24 13 -11 26 -10 72 0 48 12 59 12 82 -1 27 -15 83 -107 75 -121 -7 -11
-1434 -10 -1434 1 0 16 60 34 98 28 46 -8 63 2 78 45 l11 33 65 -3 c74 -3 80
2 97 64 6 23 18 47 26 54 25 20 89 24 123 6 37 -19 86 -21 100 -3 6 6 17 39
26 72 16 65 54 107 111 125 56 18 176 5 241 -26z"/>
<path d="M5890 7045 c-176 -36 -306 -125 -351 -241 -5 -14 -18 -66 -29 -114
-43 -201 -97 -230 -273 -149 -49 23 -109 44 -132 47 -81 9 -208 -48 -250 -112
-9 -13 -23 -59 -32 -102 -19 -95 -34 -119 -79 -134 -28 -10 -49 -9 -102 4
-120 28 -161 25 -206 -15 -27 -23 -36 -40 -42 -77 -13 -97 -48 -115 -194 -100
-78 8 -99 7 -136 -7 -42 -16 -144 -98 -144 -116 0 -5 744 -9 1836 -9 l1837 0
-7 40 c-16 100 -122 275 -191 315 -65 39 -124 41 -228 11 -48 -14 -99 -26
-113 -26 -36 0 -80 48 -94 101 -60 239 -251 463 -500 589 -186 94 -399 130
-570 95z m379 -34 c322 -94 588 -343 671 -631 24 -81 56 -125 99 -135 15 -3
62 5 110 20 148 44 217 32 289 -50 51 -58 132 -215 132 -256 l0 -29 -1810 0
c-1061 0 -1810 4 -1810 9 0 12 64 67 100 86 24 13 59 15 166 13 l136 -3 23 27
c13 15 26 46 30 70 10 57 20 75 58 98 38 24 83 25 157 5 70 -19 114 -19 150 0
38 20 47 38 66 132 20 98 46 133 127 173 94 46 150 44 267 -10 110 -51 152
-58 199 -33 44 23 64 64 96 192 14 57 34 120 45 141 41 80 164 164 287 195 87
22 315 14 412 -14z"/>
<path d="M3154 6742 c-88 -81 -282 -258 -431 -394 l-271 -247 -208 75 -209 75
-171 -173 c-208 -212 -1098 -1121 -1248 -1275 -60 -62 -105 -113 -99 -113 5 0
349 347 764 770 415 424 757 770 761 770 4 0 99 -33 211 -73 l203 -73 430 392
c236 216 432 389 436 386 3 -4 107 -205 229 -447 123 -242 251 -494 285 -560
l63 -120 141 -9 c77 -4 140 -11 138 -15 -2 -3 -44 -46 -94 -94 l-92 -88 -37
61 c-20 34 -39 59 -42 56 -6 -6 68 -136 77 -136 3 1 52 45 110 100 58 54 106
97 108 95 7 -7 301 -560 299 -562 -2 -1 -97 -27 -212 -59 -193 -52 -259 -73
-228 -74 6 0 110 27 230 59 206 56 1271 297 1277 289 2 -1 114 -169 249 -373
l245 -370 -14 -89 c-12 -73 -14 -239 -12 -970 l4 -881 27 -92 c36 -126 86
-227 154 -313 l56 -73 -189 7 c-104 4 -288 14 -409 21 -121 8 -223 15 -227 15
-5 0 -8 110 -8 245 l0 245 150 0 150 0 0 225 0 225 -150 0 -150 0 0 970 0 970
-347 0 -348 0 -199 -473 c-110 -259 -293 -694 -408 -965 l-208 -492 0 -230 0
-230 475 0 475 0 0 -221 0 -221 -37 6 c-21 3 -83 10 -138 16 -299 33 -934 126
-949 140 -5 5 -11 110 -14 234 l-5 226 32 11 c17 6 29 14 27 18 -3 4 15 19 40
35 50 32 59 44 14 21 -23 -12 -30 -13 -30 -3 0 8 -5 6 -11 -5 -5 -9 -23 -24
-39 -32 l-28 -15 -4 81 c-2 44 1 88 6 97 6 10 5 17 -2 20 -7 2 -12 22 -12 44
0 32 8 51 37 87 l37 46 -37 -34 -37 -35 -1 60 c-1 32 -3 51 -6 41 -5 -18 -5
-18 -25 0 -20 18 -20 17 1 -17 18 -30 21 -51 21 -137 0 -57 -3 -103 -6 -103
-16 0 -45 24 -58 48 -12 22 -15 23 -16 8 0 -18 -1 -18 -18 -3 -10 10 -22 17
-26 17 -4 0 20 -23 53 -51 l61 -51 0 -111 c0 -62 -3 -197 -7 -300 l-6 -189
-46 7 c-100 14 -508 99 -725 151 -126 30 -231 54 -233 54 -1 0 -3 62 -3 138
l0 138 103 100 c107 105 149 138 257 198 36 20 62 36 57 36 -11 0 -168 -80
-199 -102 -16 -11 -28 -16 -28 -12 0 3 18 40 41 80 22 41 38 74 36 74 -3 0
-33 -44 -67 -99 -42 -67 -83 -117 -131 -161 -39 -34 -72 -61 -74 -59 -2 2 -5
61 -6 130 l-3 125 41 65 c23 35 52 79 63 97 40 60 11 32 -47 -45 l-58 -77 -6
90 c-3 49 -6 71 -7 49 -8 -174 -24 -420 -27 -423 -3 -4 -57 42 -115 98 -15 14
-52 71 -84 128 -32 56 -60 102 -62 102 -2 0 14 -36 36 -80 42 -84 50 -111 27
-91 -22 17 -160 92 -164 88 -2 -2 26 -21 61 -42 70 -41 217 -167 268 -229 l31
-38 -2 -115 c-1 -64 -5 -121 -7 -128 -4 -10 -30 -7 -115 16 -220 59 -550 165
-810 260 l-27 10 -7 335 c-6 279 -5 338 6 349 8 7 46 23 84 34 49 15 58 20 31
16 -50 -6 -44 1 88 89 54 36 96 66 93 66 -3 0 -34 -16 -70 -35 -36 -19 -68
-35 -72 -35 -4 0 -4 12 -1 28 6 24 2 22 -35 -21 -38 -44 -114 -95 -126 -84 -2
3 -7 76 -10 164 -6 148 -4 162 16 207 26 59 26 69 2 37 -18 -24 -18 -23 -23
70 l-6 93 76 100 75 101 -77 -75 -76 -74 0 178 c0 186 -7 240 -11 78 -1 -51
-5 -92 -9 -92 -4 0 -27 21 -50 47 -42 48 -40 43 20 -56 l33 -53 -7 -211 c-4
-116 -9 -213 -11 -215 -2 -2 -21 9 -44 23 -26 18 -53 50 -76 91 -20 35 -38 64
-40 64 -2 0 2 -19 11 -42 8 -22 12 -43 9 -46 -2 -3 -19 6 -37 19 -128 95 -88
51 89 -98 l93 -78 -5 -100 c-3 -55 -10 -264 -15 -464 -6 -201 -12 -366 -14
-368 -6 -6 -268 107 -427 183 l-156 76 -7 75 c-3 42 -6 138 -6 214 l0 137 30
7 c17 4 28 11 25 15 -3 5 3 14 14 20 11 6 18 16 15 24 -4 9 -13 5 -36 -15 -39
-37 -48 -36 -48 4 -1 17 -3 49 -6 70 -3 21 -1 51 5 67 6 18 6 30 0 30 -5 0 -9
18 -9 41 0 31 8 51 32 83 l32 41 -32 -29 -32 -30 0 40 c0 30 -5 43 -22 53 -22
14 -22 14 -5 -12 13 -21 17 -49 17 -132 0 -58 -3 -105 -6 -105 -16 0 -45 24
-58 48 -12 22 -15 23 -16 8 0 -17 -2 -17 -18 -5 -10 8 6 -9 36 -36 l55 -51 -2
-109 c-2 -200 -14 -415 -22 -415 -13 0 -194 106 -309 181 -57 37 -107 66 -109
63 -7 -6 19 -24 160 -113 222 -140 486 -274 779 -396 l125 -52 -4 -204 c-2
-112 -6 -206 -8 -209 -2 -3 -9 4 -15 15 -16 29 -113 125 -126 125 -26 0 -14
-20 85 -138 l32 -39 -56 19 c-88 30 -92 17 -9 -31 72 -41 79 -43 139 -39 34 3
91 17 127 31 l65 27 -62 -6 c-35 -3 -63 -4 -63 -1 0 3 23 20 51 38 47 30 87
74 77 84 -2 3 -30 -12 -62 -31 -31 -20 -59 -34 -62 -32 -2 3 7 25 21 49 13 24
25 55 25 69 l-1 25 -23 -28 -23 -28 -6 127 c-3 71 -4 130 -2 132 2 3 68 -18
147 -46 967 -341 2097 -565 3438 -681 885 -77 1977 -89 2895 -31 77 5 141 7
143 5 7 -7 -40 -68 -80 -106 -21 -20 -38 -45 -38 -57 0 -22 0 -22 265 -22 146
0 265 2 265 5 0 3 -22 28 -49 55 -49 49 -98 69 -139 56 -15 -5 -22 2 -35 36
-9 23 -15 43 -14 45 2 1 104 12 228 23 390 36 839 91 1149 140 378 61 618 108
550 110 -8 0 -61 -9 -118 -20 -56 -11 -107 -20 -112 -20 -6 0 -10 53 -10 128
l0 129 103 99 c110 108 155 142 269 204 40 22 70 40 65 40 -11 0 -188 -90
-219 -112 -16 -11 -28 -17 -28 -14 0 2 18 39 41 80 22 42 39 76 36 76 -3 0
-33 -44 -67 -99 -42 -67 -83 -118 -130 -160 -38 -33 -71 -61 -74 -61 -3 0 -6
60 -6 133 l0 132 75 113 c41 61 74 112 71 112 -2 0 -34 -40 -72 -90 -38 -49
-72 -90 -76 -90 -5 0 -9 42 -9 93 -1 62 -6 14 -16 -148 -8 -132 -16 -241 -18
-243 -3 -4 -58 44 -120 103 -11 11 -47 66 -79 123 -32 56 -60 102 -62 102 -2
0 14 -36 37 -81 22 -45 38 -83 36 -86 -3 -2 -24 7 -47 22 l-41 26 1 67 c1 37
1 79 1 95 l-1 27 -148 0 -149 0 -6 503 c-4 276 -7 712 -7 970 l0 467 -345 0
-344 0 -18 -40 c-17 -39 -19 -40 -40 -25 -12 8 -25 30 -28 48 -40 179 -227
359 -432 412 -87 23 -230 20 -299 -6 -77 -29 -136 -89 -153 -154 -46 -175 -66
-193 -169 -141 -67 33 -95 38 -148 25 -64 -16 -109 -62 -118 -119 -10 -69 -17
-74 -57 -44 -60 45 -150 85 -248 111 -82 22 -118 25 -251 26 -105 0 -180 -5
-232 -16 -265 -55 -453 -218 -543 -471 l-33 -90 -247 372 c-188 284 -251 372
-263 368 -10 -3 -57 -14 -107 -25 -49 -11 -273 -60 -497 -110 -224 -50 -413
-91 -421 -91 -8 0 -78 122 -167 288 -84 158 -154 288 -155 289 0 2 -70 7 -154
12 -84 6 -154 11 -156 13 -1 2 -131 257 -288 568 -157 310 -290 566 -294 567
-4 1 -80 -64 -169 -145z m5151 -1237 c99 -25 200 -81 275 -152 82 -76 121
-135 150 -223 11 -36 32 -75 45 -87 l25 -22 -38 -88 -38 -88 -571 -3 -571 -2
-28 47 c-15 27 -49 71 -75 98 l-47 50 10 45 c19 82 30 100 73 125 54 32 105
32 173 0 113 -52 157 -29 183 97 24 110 70 161 182 199 65 23 173 24 252 4z
m405 -685 c0 -6 -110 -270 -244 -589 -135 -318 -256 -605 -269 -637 -14 -33
-57 -135 -96 -227 l-71 -169 0 -234 0 -234 188 0 187 -1 -30 -27 c-17 -15 -58
-50 -90 -79 -33 -28 -58 -54 -55 -57 3 -3 50 33 105 80 l99 84 271 -2 270 -3
3 -217 c1 -120 1 -218 0 -218 -2 0 -97 -9 -213 -20 -263 -25 -287 -25 -327 0
-44 26 -54 25 -86 -9 l-27 -29 -210 -11 c-267 -15 -659 -30 -664 -25 -2 2 13
22 33 45 132 146 201 342 215 607 l6 124 209 -236 c116 -130 211 -236 213
-236 15 0 -27 51 -212 259 l-215 240 0 703 c0 555 -3 724 -15 803 -14 102 -41
200 -75 280 l-19 45 559 0 c369 0 560 -3 560 -10z m-1744 -145 c60 -24 105
-107 124 -225 5 -36 10 -225 10 -420 l-1 -355 -34 38 c-20 20 -37 37 -39 37
-2 0 -54 -40 -116 -90 -62 -49 -116 -90 -121 -90 -5 0 -41 48 -80 106 l-71
106 4 341 c4 315 6 347 25 405 22 66 61 125 94 142 54 29 141 31 205 5z
m-2076 -840 l0 -655 -241 0 c-226 0 -241 1 -234 18 11 27 465 1285 465 1289 0
2 2 3 5 3 3 0 5 -295 5 -655z m4090 0 l0 -655 -241 0 c-225 0 -241 1 -236 18
4 17 435 1210 456 1265 6 15 13 27 16 27 3 0 5 -295 5 -655z m-2260 -200 c41
-63 67 -92 74 -87 6 5 60 48 120 96 l109 87 39 -38 38 -37 0 -417 c0 -461 -6
-530 -58 -623 -36 -64 -92 -96 -169 -96 -68 0 -111 18 -147 61 -39 46 -62 103
-75 187 -13 84 -15 976 -3 968 5 -3 37 -48 72 -101z m3302 -820 l92 -90 -2
-110 c-2 -60 -5 -124 -8 -141 l-6 -31 -106 -17 c-244 -38 -428 -66 -444 -66
-16 0 -18 12 -18 113 0 63 2 116 5 119 4 3 23 2 43 -2 20 -4 51 -10 69 -13
l32 -6 26 79 27 80 54 0 54 0 0 121 0 120 45 -32 c25 -18 87 -74 137 -124z
m-312 -93 c0 -4 -9 -36 -21 -71 l-21 -62 -47 7 c-84 12 -91 18 -91 72 0 27 3
52 7 55 9 10 173 9 173 -1z m-1273 -467 c12 -8 29 -36 39 -62 10 -27 31 -68
46 -92 15 -25 28 -49 28 -53 0 -5 -33 -8 -72 -6 l-73 3 -6 42 c-3 23 -11 48
-18 57 -11 13 -7 95 6 119 7 11 27 8 50 -8z m160 -127 c15 -7 45 -30 66 -51
l38 -38 -53 3 c-51 3 -53 4 -50 30 2 19 -4 31 -18 40 -11 7 -20 16 -20 20 0
11 4 10 37 -4z"/>
<path d="M8220 2404 c0 -6 27 -40 60 -75 32 -35 59 -59 59 -54 0 14 -118 143
-119 129z"/>
<path d="M3166 6484 l-148 -299 7 -70 6 -70 -126 -184 c-68 -102 -123 -187
-120 -189 7 -7 11 0 150 205 l116 171 -10 63 -11 64 145 294 c80 162 144 299
142 304 -2 6 -70 -125 -151 -289z"/>
<path d="M10687 6381 c-26 -17 -91 -98 -99 -123 -2 -6 -24 3 -48 19 -53 35
-101 53 -143 53 -39 0 -114 -36 -128 -61 -14 -26 3 -24 30 5 54 57 138 54 231
-9 29 -19 53 -35 55 -35 2 0 15 20 28 43 37 62 100 117 136 117 24 0 61 -13
135 -48 5 -3 5 1 1 8 -13 21 -88 50 -130 50 -23 0 -52 -8 -68 -19z"/>
<path d="M2052 6171 c2 -4 26 -59 53 -120 l50 -112 118 -96 c65 -53 117 -103
117 -112 -1 -9 -7 -84 -14 -167 -11 -140 -14 -153 -41 -188 -15 -20 -25 -39
-23 -42 3 -3 19 12 35 33 29 36 31 46 42 178 18 231 29 200 -106 310 l-118 96
-49 114 c-27 63 -53 115 -58 115 -6 0 -8 -4 -6 -9z"/>
<path d="M10465 6041 c-21 -9 -73 -64 -110 -115 l-20 -28 -52 32 c-54 34 -127
49 -177 36 -28 -7 -86 -53 -86 -68 0 -6 16 4 35 20 64 57 137 53 236 -13 28
-20 53 -34 54 -33 1 2 13 24 28 49 61 107 128 132 223 84 56 -28 54 -28 54
-17 0 13 -87 51 -128 57 -20 2 -46 1 -57 -4z"/>
<path d="M11216 5978 c-17 -18 -38 -44 -46 -56 l-15 -24 -49 26 c-59 32 -118
34 -163 6 -32 -19 -44 -40 -23 -40 6 0 10 4 10 9 0 5 16 16 36 26 45 21 85 15
147 -25 l47 -29 14 28 c8 15 28 42 44 59 36 39 89 43 140 12 17 -11 32 -15 32
-9 0 14 -79 49 -113 49 -20 0 -39 -11 -61 -32z"/>
<path d="M2708 5568 c-34 -46 -41 -58 -30 -58 11 0 66 80 59 86 -2 3 -15 -10
-29 -28z"/>
<path d="M12141 5555 c-30 -34 -32 -35 -53 -20 -33 22 -101 20 -123 -5 -21
-23 -9 -26 19 -5 28 21 58 18 99 -9 33 -23 37 -23 42 -7 3 10 19 30 35 46 29
28 30 28 70 12 44 -17 56 -8 15 11 -44 20 -71 14 -104 -23z"/>
<path d="M2141 5114 c-67 -91 -121 -169 -119 -175 2 -5 50 55 108 133 136 184
152 208 142 208 -4 0 -63 -75 -131 -166z"/>
<path d="M10615 5172 c-54 -26 -81 -58 -95 -112 -15 -58 -36 -90 -59 -90 -10
0 -39 9 -63 20 -75 33 -140 2 -159 -77 -13 -48 -29 -57 -77 -43 -46 13 -78 -2
-96 -45 -15 -35 -16 -35 -75 -35 -53 0 -65 -4 -93 -30 l-33 -29 450 2 450 2
-427 2 c-236 2 -428 7 -428 12 0 17 51 30 93 25 47 -7 77 11 77 45 0 31 24 41
91 39 l64 -3 15 49 c28 85 76 104 165 65 62 -28 89 -17 106 43 29 109 59 141
153 160 70 15 146 1 229 -41 31 -16 57 -25 57 -20 0 6 -30 24 -67 42 -87 41
-213 49 -278 19z"/>
<path d="M3903 4979 c-18 -5 -33 -13 -33 -18 0 -9 74 9 86 22 10 9 -13 8 -53
-4z"/>
<path d="M11122 4436 l-2 -69 -41 44 -41 44 23 -40 c12 -22 31 -52 41 -67 17
-25 18 -42 12 -232 -4 -113 -10 -206 -13 -206 -24 0 -86 60 -116 112 -20 35
-34 55 -31 45 13 -42 18 -67 12 -67 -4 0 -35 18 -69 41 -67 44 -65 42 101
-102 l102 -90 0 -87 c0 -174 -32 -1107 -38 -1114 -4 -3 -119 -32 -257 -63
-137 -31 -252 -59 -254 -61 -11 -11 46 -1 213 37 341 76 702 172 958 255 59
18 109 34 113 34 6 0 -5 -441 -11 -449 -2 -2 -24 17 -49 43 -26 25 -55 46 -66
46 -20 0 -20 -1 -2 -31 10 -17 39 -54 66 -84 48 -54 60 -82 31 -71 -35 13
-105 28 -110 23 -5 -5 80 -59 145 -92 47 -24 122 -15 236 26 101 38 96 46 -15
25 -41 -8 -76 -13 -78 -11 -2 1 19 15 45 30 91 53 146 105 129 122 -6 6 -84
-38 -132 -74 -46 -34 -48 -28 -9 22 33 45 60 115 52 138 -3 10 -55 -54 -109
-133 -15 -24 -16 -20 -17 90 0 63 -2 183 -3 265 l-3 150 70 24 c248 84 683
270 883 378 167 89 109 72 -87 -26 -99 -50 -183 -91 -186 -91 -3 0 -5 79 -5
175 l0 175 24 10 c13 5 25 13 27 18 2 4 22 20 44 35 22 15 35 27 29 27 -5 0
-16 -6 -23 -12 -10 -9 -15 -10 -18 -2 -2 7 -16 -1 -33 -17 -16 -16 -33 -29
-38 -29 -21 0 -30 147 -11 182 8 15 8 19 0 14 -7 -5 -11 8 -11 39 0 38 7 56
32 89 l32 41 -32 -29 -32 -30 -1 55 c0 30 -3 48 -6 41 -4 -10 -10 -9 -25 5
-20 17 -20 17 1 -17 18 -30 21 -51 21 -137 0 -116 -9 -128 -54 -70 -14 17 -26
26 -26 18 0 -11 -3 -11 -17 -1 -10 7 6 -10 36 -38 l54 -50 -7 -253 c-5 -210
-9 -256 -22 -265 -37 -29 -613 -248 -623 -238 -3 2 -5 120 -5 262 l-1 257 80
27 c46 16 64 25 43 21 -21 -3 -38 -3 -38 1 0 3 42 33 93 67 120 80 128 89 40
45 -40 -20 -73 -34 -73 -32 0 3 5 17 10 33 l10 28 -21 -25 c-12 -14 -29 -35
-38 -46 -21 -26 -98 -67 -111 -59 -6 4 -10 75 -10 168 0 140 3 168 20 206 22
47 20 68 -1 29 -13 -22 -14 -21 -20 22 -19 119 -16 132 67 243 l77 102 -77
-75 -76 -74 -1 149 c-1 91 -4 138 -9 120 -4 -16 -8 -49 -9 -72 l-1 -42 -45 47
-45 47 46 -77 46 -77 -7 -215 -7 -216 -46 33 c-30 21 -60 57 -84 98 -41 71
-45 72 -23 9 18 -51 15 -50 -78 10 -34 23 -50 31 -35 18 14 -13 78 -68 142
-123 l116 -100 0 -115 c0 -199 -20 -724 -28 -732 -18 -17 -646 -197 -656 -187
-2 2 -9 202 -14 444 -11 498 -18 453 78 476 50 12 52 14 25 19 l-30 5 37 23
c31 19 36 28 36 59 l0 36 -36 -40 c-33 -36 -110 -89 -117 -81 -2 2 -4 75 -6
163 -2 133 0 167 14 199 10 22 15 41 12 44 -2 3 -7 -3 -11 -12 -15 -38 -24
-10 -24 72 l0 89 66 89 67 89 -67 -65 -66 -64 -1 34 c-1 19 -5 82 -9 140 -6
93 -7 97 -8 36z"/>
<path d="M12860 3502 c0 -12 124 -102 141 -102 6 0 1 8 -12 18 -82 62 -129 92
-129 84z"/>
<path d="M13157 3458 c-43 -28 -76 -53 -73 -56 7 -6 166 90 166 100 0 14 -14
7 -93 -44z"/>
<path d="M2819 3473 c-13 -16 -12 -17 4 -4 16 13 21 21 13 21 -2 0 -10 -8 -17
-17z"/>
<path d="M2152 2498 c-14 -18 -32 -121 -32 -189 0 -31 -3 -70 -6 -88 l-6 -31
-21 28 c-67 90 -159 164 -179 144 -17 -17 0 -46 78 -142 38 -47 59 -80 48 -76
-27 12 -117 36 -131 36 -23 0 -14 -27 15 -46 15 -10 63 -37 106 -61 l79 -43
467 0 467 0 -4 23 c-3 13 -18 31 -34 41 -16 9 -40 32 -54 50 -47 61 -134 86
-212 61 -19 -6 -23 -1 -37 47 -30 102 -75 158 -142 177 -47 13 -71 -3 -145
-102 -37 -49 -77 -95 -89 -104 -12 -9 -21 -12 -18 -7 39 81 51 113 55 146 10
68 -22 45 -104 -74 -26 -38 -48 -66 -50 -65 -1 2 2 30 8 63 24 127 -15 265
-59 212z m415 -89 c47 -18 71 -49 104 -133 17 -45 39 -92 49 -106 23 -33 60
-106 60 -120 0 -6 -40 -10 -110 -10 -122 0 -130 4 -130 73 0 19 -13 60 -29 90
-27 51 -28 56 -14 88 8 19 12 42 9 52 -5 19 14 77 26 77 3 0 19 -5 35 -11z
m288 -220 c40 -15 62 -31 79 -56 14 -19 38 -44 55 -54 49 -29 38 -39 -43 -39
-86 0 -101 10 -91 64 6 32 4 36 -29 58 -20 13 -36 29 -36 36 0 16 -1 16 65 -9z"/>
<path d="M12456 2415 c-3 -9 -6 -42 -6 -73 l0 -57 -41 43 c-51 52 -64 47 -21
-7 39 -48 39 -53 6 -40 -43 16 -40 2 5 -20 46 -24 82 -25 131 -5 l35 14 -32
-5 c-18 -2 -33 -3 -33 -1 0 2 18 15 40 30 49 32 54 56 5 26 -40 -25 -41 -24
-19 19 24 48 10 49 -22 2 -14 -23 -28 -41 -31 -41 -2 0 -1 22 3 49 7 52 -7 99
-20 66z"/>
<path d="M3631 2335 c-6 -22 -11 -56 -11 -75 0 -19 -3 -58 -6 -87 l-7 -51 -67
70 c-40 41 -72 68 -79 64 -13 -8 32 -75 85 -127 19 -18 34 -36 34 -40 0 -4
-28 2 -61 12 -34 11 -64 18 -66 15 -15 -15 146 -96 191 -96 35 0 211 58 203
67 -3 2 -33 -1 -67 -7 -34 -6 -64 -9 -66 -7 -3 3 20 18 49 35 55 31 107 84 88
90 -5 2 -34 -12 -63 -30 -87 -56 -85 -55 -65 -28 45 63 77 159 43 130 -8 -6
-36 -43 -62 -81 -26 -38 -48 -68 -50 -66 -1 1 4 31 12 67 15 70 11 136 -10
166 -13 17 -15 15 -25 -21z"/>
<path d="M10485 2166 c-31 -47 -60 -276 -68 -529 l-2 -78 -84 105 c-99 126
-182 205 -246 236 -41 20 -48 21 -62 8 -13 -13 -13 -19 0 -49 20 -47 86 -134
206 -272 56 -64 100 -117 97 -117 -2 0 -24 9 -48 20 -57 25 -224 70 -260 70
-38 0 -36 -23 5 -54 38 -29 201 -122 309 -177 l78 -39 870 0 870 0 -6 28 c-11
45 -32 71 -82 96 -35 18 -56 39 -82 81 -31 51 -43 61 -105 90 -113 52 -180 68
-223 54 -20 -6 -50 -21 -65 -31 -27 -20 -29 -20 -42 -2 -8 11 -26 53 -39 94
-35 108 -80 209 -110 246 -30 38 -136 93 -195 101 -28 4 -48 1 -65 -10 -29
-19 -116 -125 -214 -261 -56 -76 -87 -109 -142 -147 -38 -26 -70 -46 -70 -43
0 3 16 26 35 51 53 70 93 159 111 246 17 80 12 103 -18 92 -18 -7 -116 -135
-218 -285 -49 -71 -70 -95 -65 -75 34 146 39 181 39 315 1 152 -7 192 -47 238
-26 28 -43 28 -62 -2z m788 -155 c101 -44 150 -113 212 -300 16 -49 46 -110
71 -146 49 -69 111 -196 116 -235 l3 -25 -210 0 -210 0 -17 36 c-10 19 -22 73
-26 120 -9 86 -22 121 -74 197 l-30 43 30 88 c26 77 28 91 16 103 -13 12 -12
20 2 54 9 21 20 49 25 62 10 27 33 28 92 3z m552 -422 c103 -41 104 -42 145
-105 32 -50 53 -70 91 -90 48 -24 77 -63 63 -85 -3 -5 -64 -9 -136 -9 l-131 0
-32 34 -32 35 18 53 c21 63 19 67 -73 130 -32 21 -58 40 -58 43 0 16 15 35 27
35 8 0 62 -18 118 -41z"/>
<path d="M7257 2133 c-3 -5 -8 -44 -12 -87 l-7 -80 -35 42 c-37 44 -73 70 -73
53 0 -6 20 -35 45 -66 25 -30 44 -55 43 -55 -2 0 -24 7 -50 15 -27 8 -48 12
-48 10 0 -2 24 -17 54 -34 63 -36 107 -39 181 -10 l50 19 -47 -5 c-27 -2 -48
-3 -48 -1 0 2 19 16 43 29 45 26 73 54 65 62 -2 3 -26 -9 -52 -25 -58 -37 -62
-37 -37 -2 20 27 38 82 27 82 -3 0 -22 -25 -42 -55 -21 -30 -39 -54 -41 -51
-2 2 1 25 7 51 15 65 -2 143 -23 108z"/>
<path d="M4614 1893 c-4 -27 -10 -83 -13 -125 l-6 -78 -43 55 c-38 50 -100
100 -110 90 -7 -7 20 -47 74 -111 30 -35 53 -64 51 -64 -3 0 -22 6 -43 13
-115 41 -119 28 -10 -32 88 -49 122 -51 224 -17 80 27 125 51 82 42 -60 -11
-120 -18 -120 -12 0 3 18 15 40 26 41 21 115 88 107 97 -7 6 -60 -22 -117 -61
-42 -28 -44 -29 -28 -6 31 43 51 84 59 118 7 32 7 33 -11 17 -11 -10 -38 -46
-61 -81 -23 -36 -44 -63 -46 -60 -2 2 0 21 6 43 21 76 10 193 -19 193 -5 0
-12 -21 -16 -47z"/>
</g>
</svg>
